<svg width="10" height="8" viewBox="0 0 10 8" fill="none" xmlns="http://www.w3.org/2000/svg">
<path d="M8.46075 0.489312C8.62509 0.344885 8.84379 0.26504 9.0707 0.266625C9.29761 0.26821 9.51498 0.351101 9.67694 0.497807C9.83889 0.644513 9.93278 0.84356 9.93878 1.05295C9.94477 1.26233 9.86242 1.46568 9.70908 1.62008L5.05408 6.99393C4.97404 7.07351 4.87743 7.13738 4.77004 7.18171C4.66264 7.22604 4.54667 7.24992 4.42904 7.25193C4.31142 7.25394 4.19456 7.23404 4.08546 7.19341C3.97637 7.15278 3.87726 7.09226 3.79408 7.01547L0.707082 4.16593C0.621114 4.09198 0.552162 4.00281 0.504338 3.90374C0.456514 3.80466 0.430798 3.69771 0.428725 3.58926C0.426652 3.48081 0.448264 3.37309 0.492272 3.27252C0.53628 3.17194 0.601782 3.08058 0.684871 3.00389C0.767959 2.92719 0.866932 2.86673 0.975885 2.8261C1.08484 2.78548 1.20154 2.76553 1.31903 2.76744C1.43651 2.76936 1.55238 2.7931 1.65971 2.83724C1.76704 2.88139 1.86364 2.94503 1.94375 3.02439L4.38675 5.27839L8.43858 0.513005C8.44588 0.504714 8.45367 0.496804 8.46192 0.489312H8.46075Z" fill="#F4F4FD"/>
</svg>
